<?xml version="1.0" standalone="no"?><!DOCTYPE svg PUBLIC "-//W3C//DTD SVG 1.1//EN" "http://www.w3.org/Graphics/SVG/1.1/DTD/svg11.dtd"><svg t="1482820686478" class="icon" style="" viewBox="0 0 1024 1024" version="1.1" xmlns="http://www.w3.org/2000/svg" p-id="46885" xmlns:xlink="http://www.w3.org/1999/xlink" width="200" height="200"><defs><style type="text/css"></style></defs><path d="M192.227042 252.995119 192.227042 255.993905c6.802124 187.728864 41.787957 355.612104 57.781481 372.044475 37.106926 49.492155 152.10914 130.995738 216.936549 171.954763 15.993524 10.239756 29.670913 12.165806 45.054927 12.555892 15.335254-0.390086 28.963882-2.925645 44.981786-12.555892 66.143949-39.081736 182.633366-122.438228 219.545249-171.954763 16.212947-16.432371 48.614462-184.315612 55.440966-372.044475l0.195043-2.998786c0-17.261303-11.044308-32.182091-26.428323-37.765196-80.430847-27.939906-198.188043-35.42468-293.539678-35.42468-95.571058 0-213.328254 7.509155-293.539678 35.42468C203.271351 220.813028 192.227042 235.733816 192.227042 252.995119L192.227042 252.995119zM0.01219 129.874241l0.195043 4.729792c10.849265 300.366182 59.073641 564.405609 85.111878 590.68765 59.731911 79.358111 250.678984 202.674032 353.929859 270.11014C463.775624 1011.395348 487.229542 1023.34173 512 1023.97562c24.746077-0.63389 48.175615-12.580272 72.726649-28.573796 103.226495-67.460489 294.173567-190.75203 353.905478-270.11014 26.013857-26.257661 74.262613-290.297088 85.111878-590.68765L1023.98781 129.874241c0-27.696102-17.943954-51.832671-42.690031-60.560844C851.813623 24.502274 665.962049 0 512 0 357.94043 0 172.137616 24.502274 42.653461 69.313397 17.907383 78.04157 0.01219 102.178139 0.01219 129.874241L0.01219 129.874241zM103.433728 199.675246c0-22.186138 14.311278-41.178448 33.937478-48.248756C239.793148 116.05057 390.195662 106.688507 512 106.688507S784.206852 116.05057 886.604414 151.42649c19.626199 7.070308 33.913097 26.062618 33.913097 48.248756l-0.219423 3.608295c-8.752554 237.879289-49.955382 453.718721-70.629937 474.685841-47.346682 62.657556-198.407466 163.348492-280.081712 216.668365-19.406776 12.653413-37.960239 22.186138-57.562058 22.649365-19.65058-0.463227-38.179662-9.995952-57.610819-22.649365-81.698626-53.319873-232.75941-153.986429-280.081712-216.668365C153.608533 657.026642 112.405705 441.18721 103.653151 203.307921L103.433728 199.675246 103.433728 199.675246z" p-id="46886"></path></svg>