<?xml version="1.0" standalone="no"?><!DOCTYPE svg PUBLIC "-//W3C//DTD SVG 1.1//EN" "http://www.w3.org/Graphics/SVG/1.1/DTD/svg11.dtd"><svg t="1482820703517" class="icon" style="" viewBox="0 0 1024 1024" version="1.1" xmlns="http://www.w3.org/2000/svg" p-id="46993" xmlns:xlink="http://www.w3.org/1999/xlink" width="200" height="200"><defs><style type="text/css"></style></defs><path d="M939.043073 654.210909c-10.756995 0-19.463284-8.704243-19.463284-19.463284 0-225.368864-183.363168-408.732032-408.732032-408.732032S102.115726 409.378761 102.115726 634.747625c0 10.759041-8.706289 19.463284-19.463284 19.463284s-19.463284-8.704243-19.463284-19.463284c0-246.847038 200.811562-447.658599 447.658599-447.658599s447.658599 200.811562 447.658599 447.658599C958.506357 645.50769 949.801091 654.210909 939.043073 654.210909z" p-id="46994"></path><path d="M807.880801 587.765591c-7.308453-6.738471-19.057031-11.409864-27.653827-9.626241-28.730345 5.965875-69.385277 21.635763-101.374852 21.635763-31.991622 0-138.6365 0-159.335938 0-20.708648 0 27.602661 23.208585 33.247218 60.850903 5.644557 37.642319-51.132564 69.007677-67.747987 69.007677-16.621563 0-52.068889 0-59.600423 0-7.526417 0-53.94461-33.872458-60.848856-95.349625-6.894014-61.479213 44.540426-159.336962 57.713446-163.730015 13.177114-4.384867 43.919279 0 43.919279 0s7.52437-22.423709-4.391007-21.166065c-11.921517 1.257643-40.466644 0.466628-40.466644 0.466628s-7.191796-12.266371-17.130146-22.577205c1.25355-16.703427 7.010671-52.891627 22.86987-63.831794 5.418406 29.04757 20.134573 29.477358 20.134573 29.477358l0-80.438007c0 0-20.650319 6.971785-21.541619 34.652218-26.711362 10.875698-34.116005 51.253314-36.08894 68.817342-16.187681-7.001461-43.211151 2.537799-43.211151 2.537799l-0.004093 0.159636c-12.085246 1.952468-18.060331-19.48682-26.182312-16.789385-8.468882 2.828418-2.824325 76.689636 6.119371 73.40073 7.343245-2.711761 18.700921-12.295024 22.555715-15.671934 4.684696 4.978385 11.325953 13.470803 8.809643 19.74981-2.51324 4.393054-8.156774-1.26276-16.314571 4.386914-7.90811 5.467525-72.754001 43.512003-79.628572 137.180336-20.173458 4.313236-116.588345 65.023946-96.953146 78.618569 2.988054 1.227967 12.17632 1.739621 24.370037 2.222621-9.224082 13.390985-14.646582 29.572526-14.646582 47.021943 0 45.828768 37.284161 83.112929 83.119069 83.112929 34.944883 0 64.87352-21.715581 77.131705-52.341089 19.568684 15.818267 39.439244 22.554692 51.41295 22.554692 33.463136 0 184.746678 0.418532 213.245755 0.301875 0.248663 0.01535 0.470721 0.079818 0.714268 0.079818 0.25071 0 0.494257-0.064468 0.747014-0.079818 0.258896 0 0.589424 0 0.821715 0 1.366114 0 2.677992-0.174985 3.950985-0.483001 13.723559-2.586918 24.121374-14.5903 24.121374-29.076222 0-5.854335-1.778506-11.248182-4.721535-15.823384-29.516244-0.606821-53.302997-31.115672-53.302997-68.699662 0-37.981033 24.264637-68.774363 54.213739-68.774363 0.260943 0 0.529049 0.088004 0.792039 0.116657-17.803481 9.677407-30.074969 29.65439-30.074969 52.809763 0 32.606629 24.270776 59.044768 54.209646 59.044768 7.717775-7.090489 14.877849-14.120602 21.320585-20.736277 2.27174-0.724501 4.606925-1.454118 6.956436-2.177596-6.942109 12.141528-10.971889 26.145473-10.971889 41.107233 0 45.822628 37.288255 83.114976 83.114976 83.114976 45.834908 0 83.117023-37.292348 83.117023-83.114976 0-20.779256-7.718799-39.754423-20.369933-54.336536 33.997302 6.783497 31.494295 63.378469 31.494295 63.378469l10.825556 0C874.671996 633.843022 807.880801 587.765591 807.880801 587.765591zM257.618359 771.653715c-12.637832 0-22.898523-10.270924-22.898523-22.88522 0-12.631692 10.260691-22.900569 22.898523-22.900569 12.629645 0 22.89443 10.268878 22.89443 22.900569C280.513812 761.38279 270.248004 771.653715 257.618359 771.653715zM751.299131 772.59618c-12.623505 0-22.89136-10.268878-22.89136-22.892383 0-12.622482 10.266831-22.898523 22.89136-22.898523 12.637832 0 22.898523 10.277064 22.898523 22.898523C774.197654 762.327302 763.936963 772.59618 751.299131 772.59618z" p-id="46995"></path><path d="M519.516184 584.725348l159.335938 0c15.210423 0 37.556361-6.233981 57.292867-11.738345 19.636223-5.491061 36.604686-10.218736 49.347918-10.218736 1.674129 0 3.37691 0.211824 5.111414 0.604774-7.02602-15.253402-34.452673-31.408337-64.705698-44.337811-35.443233-15.160281-206.697619-15.523555-219.874733 0-11.319813 13.33982-9.889231 56.932664-4.472871 74.562183C503.805364 589.658707 508.765329 584.725348 519.516184 584.725348z" p-id="46996"></path></svg>